<svg width="39" height="39" viewBox="0 0 39 39" fill="none" xmlns="http://www.w3.org/2000/svg">
<path d="M38.7462 32.138L34.8358 29.5097L35.4436 28.3437C35.5518 28.1363 35.5235 27.8836 35.3721 27.7055C35.3255 27.6505 34.2672 26.4247 31.8554 25.1843C32.7181 23.2984 33.4124 21.236 33.9309 19.0141C35.4915 12.3276 34.9288 6.58628 34.904 6.34517C34.8763 6.07491 34.6636 5.86127 34.3945 5.83342C29.8489 5.36252 26.144 3.84013 23.8366 2.64605C21.3283 1.34795 19.8802 0.145148 19.8662 0.133444C19.6541 -0.0444815 19.3455 -0.0444815 19.1336 0.133444C19.0766 0.18133 13.3319 4.92941 4.60524 5.8335C4.33612 5.86142 4.12345 6.07499 4.09573 6.34525C4.08461 6.45349 3.82738 9.03808 4.11713 12.7631C4.14173 13.0789 4.4158 13.3153 4.73092 13.2902C5.04543 13.2656 5.28041 12.9895 5.25589 12.6739C5.04398 9.94905 5.13653 7.81669 5.19594 6.92148C9.71814 6.37745 13.3987 4.85315 15.7195 3.64859C17.611 2.66686 18.9065 1.75115 19.4999 1.30182C20.0931 1.75115 21.3888 2.66686 23.2802 3.64859C25.601 4.85315 29.2815 6.37737 33.8036 6.92148C33.9018 8.40845 34.0888 13.3113 32.8188 18.7525C32.2687 21.1096 31.5152 23.2768 30.5688 25.2329C30.5423 25.2877 30.5152 25.3417 30.4884 25.396C30.43 25.5146 30.3709 25.6325 30.3111 25.7495C30.2773 25.8154 30.2436 25.8813 30.2094 25.9468C30.1458 26.0683 30.0813 26.1888 30.0163 26.3086C29.962 26.4085 29.907 26.5076 29.8517 26.6062C29.802 26.6948 29.7521 26.7832 29.7017 26.8707C29.6509 26.9586 29.5995 27.0461 29.5479 27.133C29.5107 27.1958 29.4729 27.258 29.4352 27.3202C29.3133 27.5211 29.1894 27.7197 29.0627 27.9152C29.0534 27.9295 29.0444 27.944 29.0351 27.9583C28.9692 28.0596 28.9023 28.1596 28.8352 28.2593C28.8064 28.3021 28.7774 28.3448 28.7483 28.3872C28.3513 28.9685 27.933 29.5242 27.4938 30.0523C27.4913 30.0554 27.4888 30.0584 27.4863 30.0615C27.4012 30.1637 27.3152 30.2646 27.2286 30.3648C27.1603 30.4435 27.0914 30.5212 27.0221 30.5988C27.0082 30.6144 26.9944 30.6303 26.9805 30.6458C26.9023 30.7329 26.8234 30.8191 26.7439 30.9046C26.7399 30.909 26.7358 30.9134 26.7317 30.9178C24.7158 33.0824 22.2935 34.7534 19.4999 35.903C16.7648 34.7765 13.7028 32.8489 11.1057 29.5546C11.0974 29.5441 11.0891 29.5334 11.0808 29.5229C11.0284 29.4563 10.9766 29.3886 10.9247 29.3209C9.97735 28.0762 9.13657 26.6972 8.41455 25.1994C8.39771 25.1645 8.37768 25.132 8.35513 25.1022C7.04697 22.3685 6.03123 19.0328 5.49468 14.9602C5.45332 14.6462 5.16547 14.4252 4.85363 14.4669C4.54095 14.5084 4.32096 14.7967 4.36233 15.1107C4.85462 18.8471 5.78886 22.2241 7.14447 25.1843C4.73252 26.4249 3.67427 27.6506 3.62758 27.7055C3.47623 27.8837 3.44797 28.1363 3.55598 28.3438L4.16382 29.5098L0.253431 32.1381C0.0877591 32.2495 -0.00814024 32.4396 0.000543259 32.6396C0.00922676 32.8397 0.121122 33.0207 0.295935 33.1173L3.49093 34.882V38.4264C3.49093 38.6322 3.60084 38.8223 3.77886 38.9244C3.86668 38.9748 3.96433 38.9999 4.06206 38.9999C4.16245 38.9999 4.26292 38.9733 4.35242 38.9202L10.6982 35.158C10.7022 35.1556 10.7057 35.1529 10.7096 35.1505C10.7161 35.1464 10.7224 35.1422 10.7287 35.138C10.7401 35.1302 10.751 35.1221 10.7617 35.1137C10.7669 35.1096 10.7721 35.1055 10.7771 35.1012C10.7906 35.0898 10.8033 35.0779 10.8155 35.0655C10.8174 35.0635 10.8195 35.0618 10.8214 35.0597C10.8362 35.0442 10.8499 35.0279 10.8627 35.011C10.8631 35.0104 10.8636 35.01 10.8641 35.0094C10.865 35.008 10.8658 35.0065 10.8668 35.0051C10.8799 34.9873 10.8918 34.9688 10.9027 34.9497C10.905 34.9456 10.9074 34.9417 10.9096 34.9376C10.9207 34.9171 10.9306 34.8962 10.9391 34.8746C10.9405 34.8709 10.9417 34.8672 10.943 34.8634C10.9499 34.8447 10.9558 34.8258 10.9607 34.8066C10.962 34.8015 10.9635 34.7964 10.9646 34.7913C10.9697 34.7689 10.9736 34.7463 10.976 34.7234C10.9763 34.7203 10.9764 34.7172 10.9766 34.7141C10.9785 34.6934 10.9791 34.6727 10.9786 34.6519C10.9785 34.6472 10.9785 34.6424 10.9783 34.6377C10.9772 34.6142 10.975 34.5906 10.9711 34.5672C10.9708 34.5656 10.9703 34.564 10.97 34.5623C10.9662 34.541 10.9609 34.5199 10.9545 34.4988C10.9529 34.4933 10.9512 34.4879 10.9494 34.4825C10.942 34.4601 10.9336 34.4378 10.9232 34.416L10.1408 32.7765C10.6104 32.5414 11.1585 32.3004 11.7892 32.0734C13.8972 34.2342 16.4043 35.902 19.289 37.0544C19.3569 37.0814 19.4284 37.095 19.5001 37.095C19.5718 37.095 19.6434 37.0814 19.7112 37.0544C22.5908 35.904 25.1018 34.2346 27.2113 32.0735C27.8419 32.3005 28.3899 32.5415 28.8594 32.7766L28.077 34.4161C28.0666 34.4379 28.0582 34.4602 28.0508 34.4826C28.0489 34.4881 28.0473 34.4935 28.0457 34.499C28.0393 34.52 28.034 34.5412 28.0302 34.5626C28.0299 34.5642 28.0294 34.5658 28.0292 34.5674C28.0252 34.5908 28.023 34.6143 28.022 34.6378C28.0217 34.6427 28.0217 34.6474 28.0217 34.6521C28.0213 34.6729 28.0218 34.6937 28.0236 34.7143C28.0239 34.7174 28.0239 34.7205 28.0242 34.7236C28.0266 34.7465 28.0306 34.7691 28.0357 34.7914C28.0368 34.7966 28.0383 34.8017 28.0396 34.8068C28.0445 34.826 28.0504 34.8449 28.0572 34.8635C28.0586 34.8672 28.0597 34.8711 28.0612 34.8748C28.0696 34.8964 28.0795 34.9173 28.0906 34.9377C28.0928 34.9418 28.0952 34.9459 28.0976 34.9499C28.1085 34.9689 28.1203 34.9874 28.1333 35.0051C28.1344 35.0065 28.1351 35.0081 28.1361 35.0094C28.1366 35.01 28.1371 35.0105 28.1375 35.011C28.1503 35.028 28.164 35.0442 28.1788 35.0598C28.1807 35.0618 28.1828 35.0636 28.1847 35.0656C28.1969 35.078 28.2097 35.0899 28.2231 35.1013C28.2281 35.1056 28.2333 35.1096 28.2385 35.1138C28.2492 35.1222 28.2601 35.1303 28.2715 35.138C28.2778 35.1423 28.2841 35.1466 28.2905 35.1506C28.2944 35.153 28.2979 35.1557 28.3019 35.1581L34.6476 38.9203C34.7371 38.9734 34.8374 39 34.938 39C35.0356 39 35.1334 38.9748 35.2212 38.9245C35.3992 38.8224 35.5091 38.6323 35.5091 38.4264V34.882L38.7041 33.1173C38.8788 33.0207 38.9908 32.8398 38.9995 32.6396C39.0078 32.4395 38.912 32.2494 38.7462 32.138ZM4.63334 37.4215V34.5427C4.63327 34.3336 4.51985 34.1411 4.33734 34.0402L1.66937 32.5666L4.69687 30.5319L6.70557 34.3852C6.71662 34.4064 6.72896 34.4266 6.74237 34.446C6.74762 34.4536 6.75379 34.4604 6.75935 34.4676C6.76819 34.4792 6.77687 34.491 6.78654 34.5017C6.79614 34.5124 6.80665 34.5221 6.81694 34.532C6.82341 34.5382 6.8295 34.5448 6.83628 34.5506C6.84893 34.5617 6.86241 34.5718 6.87605 34.5818C6.881 34.5854 6.8858 34.5892 6.89082 34.5926C6.90606 34.603 6.92198 34.6124 6.9382 34.6213C6.94201 34.6234 6.94574 34.6256 6.94963 34.6276C6.96699 34.6366 6.98482 34.6446 7.00318 34.6517C7.00622 34.653 7.00927 34.6542 7.01239 34.6553C7.03136 34.6625 7.05071 34.6685 7.07051 34.6736C7.07325 34.6743 7.07607 34.675 7.07889 34.6756C7.0913 34.6786 7.10342 34.6824 7.11614 34.6846L8.77347 34.9671L4.63334 37.4215ZM8.50831 33.7584C8.52164 33.7486 8.53566 33.7386 8.54945 33.7286C8.579 33.7073 8.60848 33.686 8.63956 33.6641C8.6586 33.6507 8.67894 33.6369 8.69859 33.6233C8.73043 33.6013 8.76196 33.5793 8.79525 33.5567C8.81536 33.5432 8.83676 33.5292 8.85748 33.5154C8.89244 33.4921 8.92703 33.469 8.96359 33.4452C8.97669 33.4367 8.99086 33.428 9.00419 33.4194C9.04532 33.393 9.08683 33.3665 9.12987 33.3396C9.13315 33.3375 9.13673 33.3354 9.14 33.3334L9.41665 33.9131L8.50831 33.7584ZM9.10885 32.0238C9.10725 32.0247 9.1055 32.0252 9.1039 32.0261C9.09902 32.0288 9.09437 32.0314 9.0895 32.0342C9.08958 32.0341 9.08942 32.0342 9.0895 32.0342C9.08759 32.0353 9.08562 32.0364 9.08363 32.0375C9.05941 32.0509 9.03572 32.0643 9.01196 32.0778C8.9677 32.1027 8.92436 32.1276 8.88163 32.1524C8.85619 32.1671 8.83067 32.1818 8.80576 32.1965C8.80294 32.1982 8.8002 32.1998 8.79738 32.2015C8.7935 32.2038 8.78977 32.2061 8.78588 32.2083C8.71725 32.2488 8.65083 32.2889 8.58593 32.3288C8.57595 32.335 8.56559 32.3412 8.55569 32.3474C8.51631 32.3718 8.478 32.3959 8.43999 32.42C8.43184 32.4251 8.42392 32.4302 8.41584 32.4353C8.41485 32.4359 8.41394 32.4366 8.41295 32.4372C7.97375 32.7175 7.62808 32.9773 7.37154 33.1899L4.7607 28.1812C5.17652 27.7872 6.09941 27.013 7.64278 26.2166C7.70197 26.333 7.76184 26.4486 7.82247 26.5635C7.85324 26.6219 7.8847 26.6796 7.91586 26.7376C7.99469 26.8845 8.07444 27.0305 8.15564 27.175C8.1737 27.2072 8.19083 27.2402 8.20896 27.2723C8.81909 28.3489 9.49191 29.3531 10.2242 30.2855C10.2411 30.3071 10.258 30.3287 10.275 30.3502C10.3345 30.4254 10.3943 30.5002 10.4546 30.5744C10.4856 30.6125 10.5169 30.6504 10.548 30.6883C10.6011 30.7528 10.6541 30.8174 10.7076 30.8811C10.7875 30.9763 10.868 31.0705 10.9492 31.1639C10.2367 31.4427 9.62666 31.7372 9.10885 32.0238ZM28.0509 31.1638C28.0519 31.1623 28.0532 31.1608 28.0545 31.1593C28.1038 31.1028 28.1522 31.0453 28.2008 30.9883C28.2304 30.9535 28.2603 30.9191 28.2898 30.8842C28.3642 30.7958 28.4378 30.7066 28.5111 30.617C28.5136 30.6139 28.5161 30.6109 28.5185 30.6079C28.8761 30.1694 29.2203 29.7147 29.5498 29.2432C29.5935 29.1806 29.6356 29.1163 29.6787 29.0532C29.7312 28.9766 29.7836 28.8999 29.8352 28.8224C29.8932 28.7355 29.9506 28.6481 30.0076 28.5601C30.0536 28.4893 30.099 28.4178 30.1443 28.3463C30.2199 28.2272 30.2946 28.1075 30.3685 27.9866C30.4185 27.9046 30.4681 27.8223 30.5173 27.7396C30.5751 27.6427 30.6323 27.5453 30.6889 27.4472C30.7526 27.337 30.8155 27.2261 30.8778 27.1145C30.912 27.0531 30.9465 26.9919 30.9803 26.93C31.0619 26.7811 31.142 26.6307 31.2211 26.4793C31.248 26.4278 31.2747 26.3762 31.3014 26.3245C31.3199 26.2885 31.3388 26.2529 31.3571 26.2168C32.8896 27.0087 33.8193 27.7874 34.2385 28.1826L31.6282 33.1899C31.3716 32.9773 31.0259 32.7174 30.5866 32.4371C30.5856 32.4365 30.5848 32.4359 30.5839 32.4353C30.5759 32.4302 30.5679 32.4251 30.5598 32.42C30.5219 32.3959 30.4836 32.3718 30.4443 32.3474C30.4319 32.3398 30.4188 32.3319 30.4063 32.3243C30.3438 32.2859 30.2799 32.2473 30.2139 32.2083C30.2101 32.206 30.2063 32.2037 30.2024 32.2015C30.1996 32.1998 30.1969 32.1982 30.1941 32.1965C30.1691 32.1818 30.1436 32.1671 30.1182 32.1524C30.0754 32.1276 30.032 32.1028 29.9879 32.0778C29.9641 32.0644 29.9403 32.0509 29.9162 32.0375C29.9143 32.0364 29.9125 32.0353 29.9105 32.0343C29.9056 32.0316 29.9009 32.0288 29.896 32.0261C29.8944 32.0252 29.8926 32.0246 29.891 32.0237C29.3734 31.7373 28.7634 31.4427 28.0509 31.1638ZM29.7472 33.57L29.8601 33.3335C29.8635 33.3356 29.867 33.3377 29.8703 33.3398C29.9133 33.3666 29.9545 33.393 29.9954 33.4193C30.0089 33.4279 30.0233 33.4368 30.0366 33.4454C30.0733 33.4692 30.108 33.4925 30.143 33.5159C30.1635 33.5295 30.1848 33.5434 30.2048 33.5569C30.2382 33.5795 30.2698 33.6015 30.3017 33.6236C30.3213 33.6372 30.3416 33.651 30.3606 33.6644C30.3911 33.6859 30.4201 33.7067 30.4491 33.7277C30.4634 33.738 30.478 33.7485 30.492 33.7587L29.5838 33.9135L29.7472 33.57ZM34.6625 34.0402C34.48 34.141 34.3666 34.3336 34.3666 34.5427V37.4216L30.2265 34.967L31.8838 34.6845C31.8899 34.6835 31.8956 34.6814 31.9015 34.6802C31.9156 34.6773 31.9295 34.674 31.9433 34.6701C31.9533 34.6673 31.9632 34.6642 31.973 34.6609C31.9862 34.6563 31.9992 34.6512 32.012 34.6456C32.0216 34.6416 32.031 34.6374 32.0403 34.6329C32.0529 34.6267 32.065 34.6198 32.077 34.6127C32.0858 34.6075 32.0945 34.6026 32.1029 34.597C32.1149 34.589 32.1264 34.5802 32.1378 34.5713C32.1453 34.5654 32.1531 34.5599 32.1603 34.5536C32.1721 34.5434 32.1832 34.5322 32.1942 34.5209C32.2001 34.515 32.2063 34.5095 32.2119 34.5032C32.2248 34.4889 32.2367 34.4735 32.2481 34.4578C32.251 34.4539 32.2543 34.4503 32.2571 34.4463C32.2706 34.4268 32.283 34.4063 32.2942 34.3849L34.303 30.5317L37.3304 32.5664L34.6625 34.0402Z" fill="#455922"/>
<path d="M31.3698 9.23788C31.3421 8.96762 31.1294 8.75405 30.8603 8.72613C24.2718 8.04357 19.9091 4.45086 19.8663 4.41499C19.6545 4.23729 19.3462 4.23729 19.1341 4.41468C19.0908 4.45094 14.7282 8.04365 8.13957 8.72613C7.87046 8.75405 7.65779 8.96762 7.63006 9.23788C7.61917 9.34421 7.36765 11.8816 7.76001 15.3462C8.12357 18.5557 9.13673 23.1839 11.8985 27.0068C12.0101 27.1613 12.1845 27.2435 12.3611 27.2435C12.4774 27.2435 12.5947 27.2079 12.696 27.1341C12.9513 26.9481 13.0082 26.5894 12.8229 26.3331C10.2127 22.72 9.24786 18.3087 8.89801 15.2442C8.61115 12.7315 8.67932 10.6865 8.73218 9.81273C14.3867 9.10669 18.3169 6.46733 19.4999 5.58168C20.6829 6.46741 24.6127 9.10692 30.2679 9.81273C30.307 10.4513 30.3543 11.7158 30.2637 13.3343C30.246 13.6506 30.4869 13.9213 30.8018 13.9391C31.1176 13.9562 31.3865 13.7151 31.4041 13.3988C31.5411 10.9517 31.3769 9.3068 31.3698 9.23788Z" fill="#455922"/>
<path d="M30.695 15.1217C30.3824 15.082 30.0964 15.3044 30.0568 15.6187C28.7856 25.7059 23.6625 29.8894 19.4997 31.6208C17.4881 30.785 15.7241 29.5852 14.2539 28.0527C14.0352 27.8246 13.6736 27.8177 13.4464 28.0375C13.2193 28.2573 13.2125 28.6204 13.4313 28.8485C15.0664 30.5529 17.0371 31.8732 19.2888 32.7727C19.3567 32.7997 19.4282 32.8133 19.4999 32.8133C19.5716 32.8133 19.6432 32.7997 19.7109 32.7727C23.3929 31.3018 26.2746 28.7408 28.2759 25.1609C29.7577 22.5105 30.738 19.3485 31.1899 15.7627C31.2295 15.4485 31.0079 15.1615 30.695 15.1217Z" fill="#455922"/>
<path d="M25.8858 13.7294C25.1058 12.9462 23.837 12.9463 23.057 13.7295L17.9702 18.8378L16.134 16.9938C15.354 16.2106 14.0852 16.2106 13.3052 16.9939C12.5253 17.7772 12.5253 19.0515 13.3052 19.8347L16.5559 23.0992C16.9336 23.4786 17.4359 23.6874 17.9702 23.6874C18.5046 23.6874 19.0069 23.4785 19.3846 23.0991L25.8859 16.5703C26.6657 15.7871 26.6657 14.5127 25.8858 13.7294ZM25.0783 15.7593L18.5771 22.288C18.415 22.4507 18.1996 22.5404 17.9704 22.5404C17.7412 22.5404 17.5257 22.4507 17.3637 22.288L14.1131 19.0236C13.7784 18.6876 13.7784 18.141 14.1129 17.8049C14.2802 17.637 14.4999 17.553 14.7198 17.553C14.9394 17.553 15.1592 17.637 15.3265 17.8049L17.5664 20.0546C17.6736 20.1622 17.8188 20.2225 17.9703 20.2225C18.1217 20.2225 18.267 20.1621 18.3741 20.0546L23.8647 14.5406C24.1994 14.2045 24.7436 14.2044 25.0783 14.5405C25.4129 14.8766 25.4129 15.4233 25.0783 15.7593Z" fill="#455922"/>
</svg>
