<svg width="50" height="50" viewBox="0 0 50 50" fill="none" xmlns="http://www.w3.org/2000/svg">
<path d="M38.9962 38.2383C37.0327 38.2383 35.1924 37.4832 33.8023 36.0932L26.3149 28.6064C25.8003 28.0918 24.8661 28.0918 24.3515 28.6064L16.8333 36.124C15.4432 37.514 13.6029 38.2691 11.6394 38.2691H10.1598L19.6722 47.7808C22.6313 50.7397 27.4616 50.7397 30.4208 47.7808L39.9611 38.2411L38.9962 38.2383Z" fill="#72A674"/>
<path d="M11.6087 11.7281C13.5721 11.7281 15.4125 12.4832 16.8025 13.8732L24.3207 21.3908C24.8633 21.9334 25.7387 21.9334 26.2841 21.3908L33.8023 13.904C35.1924 12.514 37.0327 11.7589 38.9962 11.7589H39.9024L30.3621 2.21921C27.4029 -0.739736 22.5726 -0.739736 19.6135 2.21921L10.0983 11.7281H11.6087Z" fill="#72A674"/>
<path d="M47.7813 19.6401L42.0141 13.8732C41.8938 13.9347 41.7428 13.9627 41.5917 13.9627H38.9654C37.6061 13.9627 36.2776 14.5053 35.3434 15.4729L27.8532 22.9598C27.1596 23.6534 26.2226 24.0169 25.3164 24.0169C24.3794 24.0169 23.4732 23.6534 22.7796 22.9598L15.2614 15.4422C14.2965 14.4773 12.968 13.9319 11.6394 13.9319H8.40897C8.25793 13.9319 8.13766 13.9012 8.0174 13.8424L2.21936 19.6401C-0.739788 22.599 -0.739788 27.429 2.21936 30.3879L7.98663 36.1548C8.1069 36.0932 8.22717 36.0653 8.3782 36.0653H11.6087C12.968 36.0653 14.2965 35.5227 15.2307 34.555L22.7488 27.0374C24.1081 25.6782 26.4939 25.6782 27.8504 27.0374L35.3378 34.5243C36.3027 35.4891 37.6313 36.0345 38.9598 36.0345H41.5861C41.7372 36.0345 41.8574 36.0653 42.0085 36.124L47.7757 30.3571C50.7405 27.3982 50.7405 22.599 47.7813 19.6401Z" fill="#72A674"/>
</svg>
